@startuml
skinparam monochrome true
skinparam packageStyle rectangle
skinparam shadowing false
'skinparam linetype ortho
'left to right direction
skinparam classAttributeIconSize 0
hide circle
hide methods

'title Domain Model

'class Platform {
'  -description
'}


class FM{
    name
    email
    phone number
    identification document
}


class Vehicle{
    Brand
    Model
    Type
    Tare
    Gross Weight
    Current Km
    Register Date
    Acquisition Date
    Maintenance/Check-up
}

class Check-up{
    distance "km"
}



FM "1" -- "*" Vehicle : registers >
FM "1" -- "*" "Check-up" : registers >
Vehicle "1" -- "1" "Check-up" : needs >


@enduml