@startuml
'skinparam monochrome true
skinparam packageStyle rectangle
skinparam shadowing false
skinparam linetype polyline
'skinparam linetype orto

skinparam classAttributeIconSize 0

'left to right direction

' vehicle Repository !!!1
class GreenSpaceRepository{
    +getVehicleRepository
    +registerVehicle
}

class CreateGreenSpaceUI{

}

class Repositories {
    - Repositories()
    + getInstance() : Repositories
    + getVehicleRepository()
}

class CreateGreenSpaceController{
    +getVehicle

}

class GSM{
    name
    email
    phone number
    identification document
}


class GreenSpace{
    area
    type
}



CreateGreenSpaceUI --> CreateGreenSpaceController
Repositories --> GreenSpaceRepository
CreateGreenSpaceController --> Repositories
GreenSpaceRepository --> GreenSpace
CreateGreenSpaceController --> GreenSpace
GSM "1" -- "*" GreenSpace : registers >


@enduml