@startuml
'skinparam monochrome true
skinparam packageStyle rectangle
skinparam shadowing false
skinparam linetype polyline
'skinparam linetype orto

skinparam classAttributeIconSize 0

'left to right direction


class Repositories {
    - Repositories()
    + getInstance() : Repositories
    + getGreenSpaceRepository()
    + getToDoList()
}

class ToDoListController {

    +ToDoListController()
    -getGreenSpaceRepository()
    -getToDoList()
    +List<GreenSpaces> listGreenSpaces()
    +addTask(name, description, urgency, duration, GreenSpace)
}


class TodoListUI {
}

class ToDoList{
    -List<Task>tasks
    +add(task)
    +validateTask(task)
    +registerTask(name, description, urgency, duration, GreenSpace)
    }

class GreenSpaceRepository{
    +getGreenSpaces()
    }

class Task{
    -String name
    -String description
    -String urgency
    -String duration
    -GreenSpace greenSpace
    +ToDoEntry(name, description, urgency, duration, greenSpace)
    +validateEntryName(name)
    +validateEntryDescription(description)
    +validateEntryDuration(duration)
    +validateEntryUrgency(urgency)
}

class GreenSpaces {
    -String type
    -String address
    -String name
    -float area
    -UserSession manager
    +GreenSpaces(name, type, address, area, manager)
}

class GreenSpaceController {
    GreenSpaceList
    +List<GreenSpaces> to( greenSpaces)
}
class GreenSpaceRepository{
    -List<GreenSpace>greenSpaces
    +add(greenSpace)
    +getGreenSpaceByName(name)
    +validateGreenSpace(greenSpace)
    +getGreenSpaces()
    +registerGreenSpace(type, address, name, area, user)

    }
class GreenSpace{
    -String type
    -String address
    -String name
    -float area
    -UserSession manager
    -String userEmail
    +GreenSpace(type, address, name, area, manager)
    +validateType(type)
    +validateArea(area)
    +validateName(name)
    +validateAddress(address)
    +validateManager(manager)
    +setUserEmail()

}

TodoListUI .> ToDoListController

Repositories -> Repositories : instance

ToDoList "1"-> "*"Task : task

Repositories --> "1"ToDoList : toDoList

ToDoListController .> Task : task

ToDoListController ..> Repositories : repositories

ToDoListController .> GreenSpaceRepository: greenSpaceRepository

ToDoListController .> ToDoList : toDoList

Repositories -> "1"GreenSpaceRepository: greenSpaceRepository

ToDoListController ..> GreenSpaces

ToDoListController ...> GreenSpaceController

GreenSpaceController .> GreenSpace

GreenSpaceRepository --> GreenSpace

GreenSpaceController ..> GreenSpaces

@enduml