@startuml
'skinparam monochrome true
skinparam packageStyle rectangle
skinparam shadowing false
skinparam linetype polyline
'skinparam linetype orto

skinparam classAttributeIconSize 0

'left to right direction

' vehicle Repository !!!1
class AgendaRepository{
    +getDateInformation
    +getAgendaRepository()
}

class AgendaUI{

}

class Repositories {
    - Repositories()
    + getInstance() : Repositories
    + getAgendaRepository()
}

class CreateAgendaController{
    +getAgenda

}

class GSM{
    name
    email
    phone number
    identification document
}


class Agenda{

}



AgendaUI --> CreateAgendaController
Repositories --> AgendaRepository
CreateAgendaController --> Repositories
AgendaRepository --> Agenda
CreateAgendaController --> Agenda
GSM "1" -- "*" Agenda : registers >




@enduml