@startuml
'skinparam monochrome true
skinparam packageStyle rectangle
skinparam shadowing false
skinparam linetype polyline
'skinparam linetype orto

skinparam classAttributeIconSize 0

'left to right direction

' title Domain Model for Task Completion

class Collaborator {
    name
    email
}

class Task {
    taskID
    taskName
    description
    status
    completionTimestamp
}

class TaskCompletion {
    completionID
    completionNotes
    timestamp
}

Collaborator "1" -- "*" Task : creates >
Task "1" -- "0..1" TaskCompletion : has >
Collaborator "1" -- "*" TaskCompletion : records >

@enduml
