@startuml
'skinparam monochrome true
skinparam packageStyle rectangle
skinparam shadowing false
skinparam linetype polyline
'skinparam linetype orto

skinparam classAttributeIconSize 0

'left to right direction

' vehicle Repository !!!1
class AgendaRepository{
    +getVehicleRepository
    +registerVehicle
}



class Repositories {
    - Repositories()
    + getInstance() : Repositories
    + AgendaRepository()
}


class GSM{
    name
    email
    phone number
    identification document
}


class Entry{
    entryID
    task
    dueDate
    status
}


AdminUI --> AgendaController
Repositories --> AgendaRepository
AgendaController --> Repositories
AgendaRepository --> Agenda
AgendaController --> Agenda
GSM "1" -- "*" "Entry" : registers >
GSM "1" -- "*" "Entry" : cancels >
Agenda "1" -- "*" "Entry" : made of >

@enduml